<svg width="30" height="30" viewBox="0 0 30 30" fill="none" xmlns="http://www.w3.org/2000/svg">
<circle cx="15" cy="15" r="15" fill="#04E1FF"/>
<path fill-rule="evenodd" clip-rule="evenodd" d="M15.0002 2.5C8.11274 2.5 2.50024 8.1125 2.50024 15C2.50024 21.8875 8.11274 27.5 15.0002 27.5C21.8877 27.5 27.5002 21.8875 27.5002 15C27.5002 8.1125 21.8877 2.5 15.0002 2.5ZM14.9998 8.75C14.3123 8.75 13.7498 9.3125 13.7498 10V13.75H9.99976C9.31226 13.75 8.74976 14.3125 8.74976 15C8.74976 15.6875 9.31226 16.25 9.99976 16.25H13.7498V20C13.7498 20.6875 14.3123 21.25 14.9998 21.25C15.6873 21.25 16.2498 20.6875 16.2498 20V16.25H19.9998C20.6873 16.25 21.2498 15.6875 21.2498 15C21.2498 14.3125 20.6873 13.75 19.9998 13.75H16.2498V10C16.2498 9.3125 15.6873 8.75 14.9998 8.75ZM4.99976 15C4.99976 20.5125 9.48726 25 14.9998 25C20.5123 25 24.9998 20.5125 24.9998 15C24.9998 9.4875 20.5123 5 14.9998 5C9.48726 5 4.99976 9.4875 4.99976 15Z" fill="white"/>
</svg>
