<svg width="53" height="52" viewBox="0 0 53 52" fill="none" xmlns="http://www.w3.org/2000/svg">
<path fill-rule="evenodd" clip-rule="evenodd" d="M53 26C53 40.3594 41.1355 52 26.5 52C11.8645 52 0 40.3594 0 26C0 11.6406 11.8645 0 26.5 0C41.1355 0 53 11.6406 53 26ZM27.0982 32.1077C27.3679 32.2194 27.5923 32.4007 27.741 32.625H36.6451C38.7875 32.625 40.8422 33.3674 42.3572 34.689C43.8721 36.0105 44.7232 37.8029 44.7232 39.6719C44.7232 41.5408 43.8721 43.3332 42.3572 44.6548C40.8422 45.9763 38.7875 46.7188 36.6451 46.7188H34.442C32.1055 46.7165 29.8655 45.9059 28.2134 44.4647C26.5613 43.0235 25.632 41.0694 25.6295 39.0312V34.3172C25.4529 34.2098 25.3047 34.0694 25.1965 33.9062H16.7509C16.5667 34.8566 15.9801 35.7118 15.1071 36.3026C14.2342 36.8934 13.1387 37.1765 12.0378 37.0959C10.9368 37.0153 9.91075 36.5769 9.1629 35.8674C8.41505 35.158 8 34.2294 8 33.2656C8 32.3018 8.41505 31.3732 9.1629 30.6638C9.91075 29.9544 10.9368 29.5159 12.0378 29.4353C13.1387 29.3547 14.2342 29.6379 15.1071 30.2286C15.9801 30.8194 16.5667 31.6747 16.7509 32.625H25.1965C25.3047 32.4619 25.4529 32.3215 25.6295 32.214V28.108C23.2338 27.9455 20.9963 27.0015 19.363 25.464C17.7297 23.9266 16.8206 21.9086 16.817 19.8125V18.5312C16.8188 18.1352 16.961 17.7493 17.2239 17.4264C17.4868 17.1034 17.8576 16.8593 18.2857 16.7272V11.4844C18.2857 10.9747 18.5178 10.4858 18.931 10.1254C19.3442 9.76498 19.9045 9.5625 20.4888 9.5625C20.4888 9.22269 20.6436 8.8968 20.919 8.65652C21.1945 8.41624 21.5681 8.28125 21.9576 8.28125C22.5419 8.28125 23.1023 8.48373 23.5154 8.84415C23.9286 9.20458 24.1607 9.69341 24.1607 10.2031C24.1607 10.7128 23.9286 11.2017 23.5154 11.5621C23.1023 11.9225 22.5419 12.125 21.9576 12.125C21.5681 12.125 21.1945 11.99 20.919 11.7497C20.6436 11.5094 20.4888 11.1836 20.4888 10.8438C20.2941 10.8438 20.1073 10.9112 19.9696 11.0314C19.8318 11.1515 19.7545 11.3145 19.7545 11.4844V16.7272C20.1825 16.8593 20.5534 17.1034 20.8163 17.4264C21.0792 17.7493 21.2213 18.1352 21.2232 18.5312V19.6312C21.1994 20.7912 21.6798 21.9161 22.568 22.7798C23.4561 23.6434 24.686 24.1818 26.0106 24.2866C26.7144 24.3308 27.421 24.247 28.0857 24.0404C28.7504 23.8339 29.3587 23.5091 29.872 23.0867C30.3857 22.667 30.7955 22.1599 31.0762 21.5968C31.357 21.0338 31.5027 20.4265 31.5045 19.8125V18.5312C31.5063 18.1352 31.6485 17.7493 31.9114 17.4264C32.1743 17.1034 32.5451 16.8593 32.9732 16.7272V11.4844C32.9732 11.3145 32.8958 11.1515 32.7581 11.0314C32.6204 10.9112 32.4336 10.8438 32.2388 10.8438C32.2388 11.1836 32.0841 11.5094 31.8087 11.7497C31.5332 11.99 31.1596 12.125 30.7701 12.125C30.1858 12.125 29.6254 11.9225 29.2122 11.5621C28.7991 11.2017 28.567 10.7128 28.567 10.2031C28.567 9.69341 28.7991 9.20458 29.2122 8.84415C29.6254 8.48373 30.1858 8.28125 30.7701 8.28125C31.1596 8.28125 31.5332 8.41624 31.8087 8.65652C32.0841 8.8968 32.2388 9.22269 32.2388 9.5625C32.8231 9.5625 33.3835 9.76498 33.7967 10.1254C34.2099 10.4858 34.442 10.9747 34.442 11.4844V16.7272C34.87 16.8593 35.2409 17.1034 35.5038 17.4264C35.7667 17.7493 35.9088 18.1352 35.9107 18.5312V19.8125C35.907 21.9086 34.9979 23.9266 33.3647 25.464C31.7314 27.0015 29.4939 27.9455 27.0982 28.108V32.1077ZM27.0982 34.4236V39.0312C27.1004 40.7297 27.8748 42.3581 29.2515 43.5591C30.6283 44.7601 32.4949 45.4356 34.442 45.4375H36.6451C38.398 45.4375 40.0791 44.8301 41.3186 43.7488C42.5581 42.6675 43.2545 41.201 43.2545 39.6719C43.2545 38.1427 42.5581 36.6762 41.3186 35.595C40.0791 34.5137 38.398 33.9062 36.6451 33.9062H27.741C27.5923 34.1305 27.3679 34.3118 27.0982 34.4236ZM30.7701 10.8438C30.5753 10.8438 30.3885 10.7763 30.2508 10.6561C30.1131 10.536 30.0357 10.373 30.0357 10.2031C30.0357 10.0332 30.1131 9.87028 30.2508 9.75013C30.3885 9.62999 30.5753 9.5625 30.7701 9.5625V10.8438ZM21.9576 9.5625C22.1524 9.5625 22.3392 9.62999 22.4769 9.75013C22.6146 9.87028 22.692 10.0332 22.692 10.2031C22.692 10.373 22.6146 10.536 22.4769 10.6561C22.3392 10.7763 22.1524 10.8438 21.9576 10.8438V9.5625ZM12.4107 35.8281C11.8297 35.8281 11.2618 35.6778 10.7787 35.3963C10.2957 35.1147 9.91915 34.7145 9.69682 34.2463C9.47449 33.778 9.41632 33.2628 9.52966 32.7657C9.64301 32.2686 9.92278 31.812 10.3336 31.4537C10.7444 31.0953 11.2678 30.8512 11.8376 30.7524C12.4075 30.6535 12.9981 30.7042 13.5349 30.8982C14.0716 31.0921 14.5304 31.4206 14.8532 31.842C15.1759 32.2634 15.3482 32.7588 15.3482 33.2656C15.3482 33.9452 15.0387 34.597 14.4878 35.0776C13.937 35.5581 13.1898 35.8281 12.4107 35.8281ZM18.2857 19.8125V18.5312C18.2857 18.3613 18.3631 18.1984 18.5008 18.0783C18.6385 17.9581 18.8253 17.8906 19.0201 17.8906C19.2149 17.8906 19.4017 17.9581 19.5394 18.0783C19.6771 18.1984 19.7545 18.3613 19.7545 18.5312V19.6312C19.7315 21.116 20.3539 22.5534 21.4964 23.6542C22.639 24.755 24.2169 25.4376 25.9129 25.5647C26.8174 25.6208 27.7254 25.5128 28.5796 25.2474C29.4338 24.982 30.2157 24.565 30.8758 24.0227C31.5362 23.4828 32.0629 22.8308 32.4236 22.1068C32.7843 21.3827 32.9713 20.602 32.9732 19.8125V18.5312C32.9732 18.3613 33.0506 18.1984 33.1883 18.0783C33.326 17.9581 33.5128 17.8906 33.7076 17.8906C33.9024 17.8906 34.0892 17.9581 34.2269 18.0783C34.3646 18.1984 34.442 18.3613 34.442 18.5312V19.8125C34.442 21.6814 33.5909 23.4738 32.0759 24.7954C30.561 26.1169 28.5063 26.8594 26.3638 26.8594C24.2214 26.8594 22.1667 26.1169 20.6517 24.7954C19.1368 23.4738 18.2857 21.6814 18.2857 19.8125Z" fill="white"/>
</svg>
