<svg width="53" height="52" viewBox="0 0 53 52" fill="none" xmlns="http://www.w3.org/2000/svg">
<path fill-rule="evenodd" clip-rule="evenodd" d="M26.5 52C41.1355 52 53 40.3594 53 26C53 11.6406 41.1355 0 26.5 0C11.8645 0 0 11.6406 0 26C0 40.3594 11.8645 52 26.5 52ZM42.0129 19.5031L35.9801 26L42.0123 32.4969C43.2554 33.8537 43.9498 35.685 43.9439 37.5912C43.938 39.4973 43.2322 41.3235 41.9806 42.6714C40.729 44.0193 39.0332 44.7793 37.2632 44.7857C35.4933 44.7921 33.7928 44.0443 32.5328 42.7055L26.5 36.2086L20.4672 42.7055C19.2073 44.0443 17.5068 44.7921 15.7368 44.7857C13.9668 44.7793 12.271 44.0193 11.0194 42.6714C9.76782 41.3235 9.06207 39.4973 9.05614 37.5912C9.05021 35.685 9.74459 33.8537 10.9878 32.4969L17.0206 26L10.9878 19.5031C9.74459 18.1463 9.05021 16.315 9.05614 14.4088C9.06207 12.5027 9.76782 10.6764 11.0194 9.32857C12.271 7.98072 13.9668 7.22068 15.7368 7.21429C17.5068 7.20791 19.2073 7.9557 20.4672 9.29449L26.5 15.7914L32.5328 9.29449C33.7899 7.94065 35.4948 7.18004 37.2726 7.17998C39.0504 7.17992 40.7554 7.94041 42.0126 9.29416C43.2697 10.6479 43.976 12.484 43.976 14.3986C43.9761 16.3131 43.2699 18.1493 42.0129 19.5031ZM37.2722 8.49238C35.8176 8.49238 34.4225 9.11469 33.3939 10.2224L27.3617 16.7193L35.1178 25.0727L41.1506 18.5758C41.6599 18.0273 42.0639 17.3762 42.3396 16.6595C42.6152 15.9429 42.7571 15.1748 42.7571 14.3991C42.7571 13.6234 42.6152 12.8554 42.3396 12.1387C42.0639 11.4221 41.6599 10.7709 41.1506 10.2224C40.6413 9.67393 40.0367 9.23884 39.3712 8.942C38.7057 8.64516 37.9925 8.49238 37.2722 8.49238ZM10.2429 14.3991C10.2429 15.9657 10.8208 17.4681 11.8494 18.5758L17.8822 25.072L25.639 16.7193L19.6061 10.2224C18.5775 9.11469 17.1824 8.49238 15.7278 8.49238C14.2731 8.49238 12.878 9.11469 11.8494 10.2224C10.8208 11.3302 10.2429 12.8326 10.2429 14.3991ZM15.7278 43.5076C17.1824 43.5076 18.5775 42.8853 19.6061 41.7775L25.6384 35.2807L17.8822 26.9273L11.8494 33.4241C10.8208 34.5319 10.2429 36.0343 10.2429 37.6008C10.2429 39.1674 10.8208 40.6698 11.8494 41.7775C12.878 42.8853 14.2731 43.5076 15.7278 43.5076ZM26.5 17.6472L18.7439 26L26.5 34.3527L34.2561 26L26.5 17.6472ZM39.3712 43.0581C40.0367 42.7612 40.6413 42.3261 41.1506 41.7775C42.1774 40.6689 42.7539 39.167 42.7539 37.6012C42.7539 36.0354 42.1774 34.5335 41.1506 33.4248L35.1178 26.9279L27.3611 35.2807L33.3939 41.7775C33.9032 42.3261 34.5078 42.7612 35.1732 43.0581C35.8387 43.355 36.5519 43.5078 37.2722 43.5078C37.9925 43.5078 38.7058 43.355 39.3712 43.0581ZM12.2791 14.3982L13.1409 13.4701L14.0027 14.3982L13.1409 15.3263L12.2791 14.3982ZM15.7265 10.6875L14.8647 11.6156L15.7265 12.5437L16.5883 11.6156L15.7265 10.6875ZM14.0021 16.2552L14.8639 15.3271L15.7257 16.2552L14.8639 17.1833L14.0021 16.2552ZM17.4495 12.5429L16.5877 13.471L17.4495 14.3991L18.3113 13.471L17.4495 12.5429ZM15.7253 18.1111L16.5871 17.183L17.4489 18.1111L16.5871 19.0392L15.7253 18.1111ZM19.1725 14.3999L18.3107 15.328L19.1725 16.2561L20.0343 15.328L19.1725 14.3999ZM17.4488 19.9676L18.3106 19.0395L19.1723 19.9676L18.3106 20.8957L17.4488 19.9676ZM20.8961 16.2553L20.0344 17.1834L20.8961 18.1115L21.7579 17.1834L20.8961 16.2553ZM36.4072 11.6177L37.2689 10.6897L38.1307 11.6177L37.2689 12.5458L36.4072 11.6177ZM39.8528 13.4735L38.991 14.4016L39.8528 15.3297L40.7146 14.4016L39.8528 13.4735ZM34.6832 13.4728L35.545 12.5448L36.4068 13.4728L35.545 14.4009L34.6832 13.4728ZM38.1299 15.3297L37.2681 16.2578L38.1299 17.1859L38.9917 16.2578L38.1299 15.3297ZM32.9575 15.3243L33.8193 14.3962L34.6811 15.3243L33.8193 16.2523L32.9575 15.3243ZM36.4042 17.1795L35.5424 18.1076L36.4042 19.0357L37.266 18.1076L36.4042 17.1795ZM31.2362 17.1851L32.098 16.257L32.9598 17.1851L32.098 18.1131L31.2362 17.1851ZM34.6859 19.0515L33.8241 19.9796L34.6859 20.9076L35.5477 19.9796L34.6859 19.0515ZM17.4472 32.0305L18.309 31.1024L19.1708 32.0305L18.309 32.9585L17.4472 32.0305ZM20.8944 33.8869L20.0326 34.815L20.8944 35.743L21.7562 34.815L20.8944 33.8869ZM15.7244 33.8867L16.5862 32.9586L17.4479 33.8867L16.5862 34.8147L15.7244 33.8867ZM19.17 35.7424L18.3082 36.6704L19.17 37.5985L20.0318 36.6704L19.17 35.7424ZM14 35.7422L14.8618 34.8141L15.7236 35.7422L14.8618 36.6703L14 35.7422ZM17.4471 37.5986L16.5853 38.5267L17.4471 39.4548L18.3089 38.5267L17.4471 37.5986ZM12.2771 37.5984L13.1389 36.6703L14.0007 37.5984L13.1389 38.5265L12.2771 37.5984ZM15.7232 39.4546L14.8614 40.3827L15.7232 41.3107L16.585 40.3827L15.7232 39.4546ZM31.2344 34.8166L32.0962 33.8885L32.958 34.8166L32.0962 35.7447L31.2344 34.8166ZM34.6806 31.0905L33.8188 32.0186L34.6806 32.9467L35.5423 32.0186L34.6806 31.0905ZM32.9574 36.6729L33.8192 35.7448L34.681 36.6729L33.8192 37.601L32.9574 36.6729ZM36.4052 32.9608L35.5434 33.8889L36.4052 34.817L37.267 33.8889L36.4052 32.9608ZM34.6815 38.5285L35.5433 37.6004L36.405 38.5285L35.5433 39.4566L34.6815 38.5285ZM38.1278 34.8167L37.266 35.7448L38.1278 36.6729L38.9896 35.7448L38.1278 34.8167ZM36.4045 40.3849L37.2663 39.4569L38.128 40.3849L37.2663 41.313L36.4045 40.3849ZM39.8508 36.673L38.989 37.6011L39.8508 38.5292L40.7126 37.6011L39.8508 36.673Z" fill="white"/>
</svg>
