<svg width="22" height="26" viewBox="0 0 22 26" fill="none" xmlns="http://www.w3.org/2000/svg">
<path fill-rule="evenodd" clip-rule="evenodd" d="M0.775789 5.33373L9.92316 0.28232C10.5947 -0.0941068 11.4053 -0.0941068 12.0768 0.28232L21.2242 5.33373C21.6989 5.58873 22 6.11087 22 6.66944C22 7.50729 21.3516 8.18729 20.5642 8.18729H1.44737C0.648421 8.18729 0 7.50729 0 6.66944C0 6.11087 0.301053 5.58873 0.775789 5.33373ZM2.31577 12.4375V17.2946C2.31577 18.3025 3.09156 19.1161 4.05261 19.1161C5.01367 19.1161 5.78946 18.3025 5.78946 17.2946V12.4375C5.78946 11.4297 5.01367 10.6161 4.05261 10.6161C3.09156 10.6161 2.31577 11.4297 2.31577 12.4375ZM9.26316 12.4375V17.2946C9.26316 18.3025 10.0389 19.1161 11 19.1161C11.9611 19.1161 12.7368 18.3025 12.7368 17.2946V12.4375C12.7368 11.4297 11.9611 10.6161 11 10.6161C10.0389 10.6161 9.26316 11.4297 9.26316 12.4375ZM22 23.3658C22 24.3737 21.2242 25.1872 20.2632 25.1872H1.73684C0.775789 25.1872 0 24.3737 0 23.3658C0 22.358 0.775789 21.5444 1.73684 21.5444H20.2632C21.2242 21.5444 22 22.358 22 23.3658ZM16.2105 12.4375V17.2946C16.2105 18.3025 16.9863 19.1161 17.9473 19.1161C18.9084 19.1161 19.6842 18.3025 19.6842 17.2946V12.4375C19.6842 11.4297 18.9084 10.6161 17.9473 10.6161C16.9863 10.6161 16.2105 11.4297 16.2105 12.4375Z" fill="#717171"/>
</svg>
