<svg width="24" height="25" viewBox="0 0 24 25" fill="none" xmlns="http://www.w3.org/2000/svg">
<path fill-rule="evenodd" clip-rule="evenodd" d="M23.6538 3.03571C23.6538 4.70536 22.3688 6.07143 20.7981 6.07143C19.2274 6.07143 17.9423 4.70536 17.9423 3.03571C17.9423 1.36607 19.2274 0 20.7981 0C22.3688 0 23.6538 1.36607 23.6538 3.03571ZM0.807693 9.10714C0.807693 7.4375 2.09279 6.07143 3.66346 6.07143C5.23414 6.07143 6.51923 7.4375 6.51923 9.10714C6.51923 10.7768 5.23414 12.1429 3.66346 12.1429C2.09279 12.1429 0.807693 10.7768 0.807693 9.10714ZM6.51924 15.1785C6.51924 13.5089 7.80433 12.1428 9.375 12.1428C10.9457 12.1428 12.2308 13.5089 12.2308 15.1785C12.2308 16.8482 10.9457 18.2143 9.375 18.2143C7.80433 18.2143 6.51924 16.8482 6.51924 15.1785ZM3.66346 18.2143C2.09279 18.2143 0.807693 19.5804 0.807693 21.25C0.807693 22.9196 2.09279 24.2857 3.66346 24.2857C5.23414 24.2857 6.51923 22.9196 6.51923 21.25C6.51923 19.5804 5.23414 18.2143 3.66346 18.2143ZM15.0865 18.2142C13.5159 18.2142 12.2308 19.5803 12.2308 21.2499C12.2308 22.9196 13.5159 24.2857 15.0865 24.2857C16.6572 24.2857 17.9423 22.9196 17.9423 21.2499C17.9423 19.5803 16.6572 18.2142 15.0865 18.2142ZM17.9423 15.1785C17.9423 13.5089 19.2274 12.1428 20.7981 12.1428C22.3688 12.1428 23.6538 13.5089 23.6538 15.1785C23.6538 16.8482 22.3688 18.2143 20.7981 18.2143C19.2274 18.2143 17.9423 16.8482 17.9423 15.1785ZM15.0865 6.07141C13.5159 6.07141 12.2308 7.43748 12.2308 9.10713C12.2308 10.7768 13.5159 12.1428 15.0865 12.1428C16.6572 12.1428 17.9423 10.7768 17.9423 9.10713C17.9423 7.43748 16.6572 6.07141 15.0865 6.07141ZM6.51924 3.03571C6.51924 1.36607 7.80433 0 9.375 0C10.9457 0 12.2308 1.36607 12.2308 3.03571C12.2308 4.70536 10.9457 6.07143 9.375 6.07143C7.80433 6.07143 6.51924 4.70536 6.51924 3.03571Z" fill="#1FB0B9"/>
</svg>
