<svg width="53" height="52" viewBox="0 0 53 52" fill="none" xmlns="http://www.w3.org/2000/svg">
<path fill-rule="evenodd" clip-rule="evenodd" d="M53 26C53 40.3594 41.1355 52 26.5 52C11.8645 52 0 40.3594 0 26C0 11.6406 11.8645 0 26.5 0C41.1355 0 53 11.6406 53 26ZM43.4332 21.0989C43.1113 20.9569 42.7611 20.8859 42.4077 20.891C42.0543 20.8961 41.7065 20.9773 41.3891 21.1286C41.0716 21.2799 40.7925 21.4976 40.5716 21.7662C40.3507 22.0349 40.1934 22.3477 40.1112 22.6824L38.764 27.5698C38.3796 27.3221 37.9296 27.1882 37.4687 27.1844C37.0077 27.1806 36.5556 27.3071 36.1669 27.5484C36.1045 27.588 34.1268 28.8174 32.556 29.7939L32.5477 29.799C31.5058 30.4466 30.645 30.9817 30.645 30.9819C29.7083 31.5524 28.9365 32.346 28.4026 33.2878C27.8686 34.2297 27.5903 35.2885 27.5938 36.3643V41.8437H28.7813V36.3643C28.7787 35.4832 29.0071 34.6161 29.4448 33.845C29.8825 33.0739 30.5151 32.4244 31.2827 31.9578C31.2827 31.9578 36.7078 28.5844 36.8111 28.5191C37.0399 28.3769 37.3115 28.3149 37.5814 28.3431C37.8512 28.3714 38.1031 28.4883 38.2955 28.6746C38.5125 28.886 38.637 29.1709 38.643 29.4696C38.649 29.7684 38.5359 30.0578 38.3276 30.2772L34.8648 32.6475C34.7359 32.7354 34.6481 32.8696 34.6207 33.0205C34.5933 33.1713 34.6286 33.3267 34.7188 33.4523C34.8093 33.5777 34.9473 33.6629 35.1024 33.6893C35.2575 33.7156 35.417 33.6809 35.5458 33.5927L39.0549 31.1918L39.1333 31.127C39.4544 30.8178 39.6768 30.4248 39.7739 29.9954C39.8709 29.5659 39.8383 29.1183 39.6801 28.7064L41.2583 22.983C41.3309 22.6842 41.5169 22.4231 41.7788 22.2521C42.0407 22.0811 42.3594 22.0128 42.6708 22.0609C42.9363 22.1162 43.1744 22.2581 43.3457 22.4631C43.5171 22.6681 43.6114 22.9239 43.6131 23.1882C43.614 23.2899 43.6008 23.3912 43.5739 23.4894L41.4364 31.2687C41.3555 31.5625 41.1966 31.8305 40.9757 32.0457L36.5297 36.3724C35.7504 37.1312 35.3126 38.1604 35.3125 39.2335V41.8437H36.5V39.2341C36.5 38.8544 36.5768 38.4785 36.7261 38.1277C36.8753 37.777 37.0941 37.4583 37.3698 37.1898L41.8135 32.8626C42.182 32.5037 42.447 32.0566 42.5818 31.5664L44.7193 23.7895C44.7929 23.5196 44.8164 23.239 44.7888 22.961C44.7467 22.5632 44.5999 22.1827 44.3624 21.8565C44.1249 21.5302 43.8048 21.2692 43.4332 21.0989ZM17.6805 27.4606C17.8295 27.5392 21.6996 29.9511 23.3568 30.9843C24.2929 31.5546 25.0642 32.348 25.5978 33.2893C26.1314 34.2307 26.4096 35.2891 26.4062 36.3643V41.8438H25.2188V36.3643C25.2215 35.4838 24.9935 34.6171 24.5563 33.8464C24.1191 33.0756 23.4871 32.4262 22.7202 31.9596C20.562 30.6143 17.2892 28.5769 17.1022 28.4694C16.8775 28.3539 16.6207 28.3115 16.3694 28.3483C16.1181 28.3852 15.8856 28.4993 15.7057 28.6741C15.4888 28.8855 15.3643 29.1704 15.3585 29.4692C15.3526 29.7679 15.4658 30.0573 15.6742 30.2766L19.137 32.6469C19.2658 32.7351 19.3533 32.8695 19.3804 33.0205C19.4074 33.1715 19.3718 33.3268 19.2812 33.4523C19.1904 33.5766 19.0526 33.661 18.8981 33.6869C18.7436 33.7128 18.5849 33.6781 18.4565 33.5904L14.8691 31.1259C14.548 30.8168 14.3255 30.4239 14.2285 29.9945C14.1314 29.5652 14.164 29.1176 14.3222 28.7059L12.7435 22.9824C12.67 22.6843 12.484 22.424 12.2226 22.2532C11.9611 22.0824 11.6433 22.0135 11.3321 22.0603C11.0665 22.1154 10.8282 22.2572 10.6567 22.4623C10.4852 22.6673 10.3909 22.9232 10.3892 23.1877C10.3884 23.2889 10.4014 23.3898 10.4278 23.4877L12.5653 31.2687C12.6463 31.5626 12.8052 31.8305 13.0261 32.0457L17.4697 36.3724C17.8558 36.7481 18.162 37.1943 18.3709 37.6853C18.5799 38.1763 18.6875 38.7026 18.6875 39.2341V41.8438H17.5V39.2335C17.4994 38.467 17.186 37.7321 16.629 37.1904L12.1847 32.8632C11.8161 32.5041 11.5511 32.0569 11.4164 31.5664L9.27894 23.7883C9.15611 23.3266 9.17552 22.8398 9.33475 22.3887C9.47228 22.0092 9.71697 21.6751 10.0407 21.425C10.3535 21.1721 10.7275 21.0013 11.1271 20.9287C11.5268 20.856 11.9388 20.884 12.3242 21.01C12.7097 21.1359 13.0556 21.3557 13.3293 21.6484C13.6031 21.9411 13.7954 22.297 13.8882 22.6824L15.236 27.571C15.5952 27.3393 16.0122 27.2067 16.4426 27.1873C16.873 27.1678 17.3008 27.2623 17.6805 27.4606ZM37.9939 9.7185C37.2796 9.02269 36.431 8.4713 35.497 8.09606C34.563 7.72081 33.562 7.52913 32.5516 7.53203C30.3909 7.53203 28.3822 9.05192 27.0766 10.3284L26.9911 10.4117L26.8973 10.3203C25.591 9.04845 23.5895 7.53781 21.4425 7.53781C19.9137 7.53686 18.419 7.97798 17.148 8.80522C15.877 9.63247 14.887 10.8086 14.3034 12.1844C13.7198 13.5603 13.5689 15.0739 13.8699 16.5333C14.171 17.9927 14.9103 19.3323 15.9942 20.382L27 30.4969L38.0253 20.3462C38.7405 19.6466 39.307 18.8167 39.6926 17.9038C40.0781 16.9909 40.275 16.013 40.2721 15.026C40.2692 14.0389 40.0664 13.0622 39.6755 12.1515C39.2846 11.2408 38.7132 10.414 37.9939 9.7185ZM37.1959 19.5195L27 28.9094L16.8213 19.553C15.9082 18.663 15.2865 17.5295 15.0349 16.2957C14.7832 15.0618 14.9129 13.783 15.4074 12.6208C15.902 11.4587 16.7393 10.4654 17.8135 9.76646C18.8877 9.06753 20.1505 8.69434 21.4425 8.69406C23.1828 8.69406 24.913 10.0238 26.0577 11.1384L27 12.0518L27.9197 11.1453C29.5383 9.56241 31.1853 8.69059 32.551 8.69059C33.8397 8.69049 35.0996 9.06162 36.1722 9.75724C37.2448 10.4529 38.082 11.4419 38.5785 12.5999C39.0751 13.7578 39.2086 15.0329 38.9625 16.2646C38.7164 17.4963 38.1015 18.6296 37.1953 19.5218L37.1959 19.5195ZM31.1562 19.875H28.7812V22.1875H25.2188V19.875H22.8438V16.4062H25.2188V14.0938H28.7812V16.4062H31.1562V19.875ZM24.0312 17.5625V18.7188H26.4062V21.0312H27.5938V18.7188H29.9688V17.5625H27.5938V15.25H26.4062V17.5625H24.0312Z" fill="white"/>
</svg>
