<svg width="22" height="22" viewBox="0 0 22 22" fill="none" xmlns="http://www.w3.org/2000/svg">
<circle cx="11" cy="11" r="11" fill="white"/>
<path fill-rule="evenodd" clip-rule="evenodd" d="M1 11C1 5.47 5.47 1 11 1C16.53 1 21 5.47 21 11C21 16.53 16.53 21 11 21C5.47 21 1 16.53 1 11ZM13.89 15.3C14.28 15.69 14.91 15.69 15.3 15.3C15.68 14.91 15.68 14.27 15.3 13.89L12.41 11L15.3 8.10996C15.69 7.71996 15.69 7.08996 15.3 6.69996C14.91 6.30996 14.28 6.30996 13.89 6.69996L11 9.58996L8.11002 6.69996C7.72002 6.30996 7.09002 6.30996 6.70002 6.69996C6.51276 6.88679 6.40753 7.14044 6.40753 7.40496C6.40753 7.66948 6.51276 7.92313 6.70002 8.10996L9.59002 11L6.70002 13.89C6.51276 14.0768 6.40753 14.3304 6.40753 14.595C6.40753 14.8595 6.51276 15.1131 6.70002 15.3C7.09002 15.69 7.72002 15.69 8.11002 15.3L11 12.41L13.89 15.3Z" fill="#F94646"/>
</svg>
