<svg width="33" height="33" viewBox="0 0 33 33" fill="none" xmlns="http://www.w3.org/2000/svg">
<circle cx="16.5" cy="16.5" r="16.5" fill="white"/>
<path fill-rule="evenodd" clip-rule="evenodd" d="M1.5 16.5C1.5 8.205 8.205 1.5 16.5 1.5C24.795 1.5 31.5 8.205 31.5 16.5C31.5 24.795 24.795 31.5 16.5 31.5C8.205 31.5 1.5 24.795 1.5 16.5ZM20.835 22.95C21.42 23.535 22.365 23.535 22.95 22.95C23.52 22.365 23.52 21.405 22.95 20.835L18.615 16.5L22.95 12.165C23.535 11.58 23.535 10.635 22.95 10.05C22.365 9.46496 21.42 9.46496 20.835 10.05L16.5 14.385L12.165 10.05C11.58 9.46496 10.635 9.46496 10.05 10.05C9.76915 10.3302 9.6113 10.7107 9.6113 11.1075C9.6113 11.5042 9.76915 11.8847 10.05 12.165L14.385 16.5L10.05 20.835C9.76915 21.1152 9.6113 21.4957 9.6113 21.8925C9.6113 22.2892 9.76915 22.6697 10.05 22.95C10.635 23.535 11.58 23.535 12.165 22.95L16.5 18.615L20.835 22.95Z" fill="#F94646"/>
</svg>
